# xmcd
#
# Track frame offsets: 
#        182
#        14932
#        37087
#        52957
#        73207
#        98507
#        114332
#        136032
#        145907
#        161182
#        168682
#        191007
#
# Disc length: 2756 seconds
#
# Revision: 1
# Processed by: cddbd v1.5.2PL0 Copyright (c) Steve Scherf et al.
# Submitted via: ExactAudioCopy v0.95b4
#
DISCID=af0ac20c
DTITLE=Various Artist - Earplugged
DYEAR=1994
DGENRE=Death Metal
TTITLE0=Entombed - Out Of Hand
TTITLE1=Cathedral - Midnight Mountain
TTITLE2=Napalm Death - Plague Rages
TTITLE3=Godflesh - Xnoybis
TTITLE4=Bolt Thrower - ...For Victory
TTITLE5=Carcass - Embodiment
TTITLE6=Brutal Truth - Choice Of A New Generation
TTITLE7=Cathedral - Rde
TTITLE8=Napalm Death - State Of Mind
TTITLE9=Entombed - Wolverine Blues
TTITLE10=Godflesh - Anything Is Mine
TTITLE11=Bolt Thrower - When Glory Beckons
EXTD=
EXTT0=
EXTT1=
EXTT2=
EXTT3=
EXTT4=
EXTT5=
EXTT6=
EXTT7=
EXTT8=
EXTT9=
EXTT10=
EXTT11=
PLAYORDER=
